<svg width="528" height="361" viewBox="0 0 528 361" fill="none" xmlns="http://www.w3.org/2000/svg">
<path d="M347 211.503H179V225.003L171.5 234.003H115L109.5 104.003L130 82.5031C132.333 78.5031 132 71.7031 112 76.5031C107.166 77.1692 98.6996 75.4011 103.5 63.0006L115 60.0006V55.5006H130V72.0006H135.5L164.5 17.0006C169.7 1.80114 194.666 -0.332487 206.5 0.500634H328C348.4 -1.49937 359.5 10.6673 362.5 17.0006L390 72.0006H395.5V55.5006H412V60.0006L423 63.0006C425.8 70.2006 421.833 75.0023 419.5 76.5031C397.1 71.7031 396.5 78.5031 399 82.5031L419.5 104.003L414.5 234.003H357.5L347 225.003V211.503Z" fill="#0BA8DF"/>
<path d="M319.653 142.025H206.653L195.653 122.025C185.652 104.025 198.486 103.858 206.653 104.025H316.653C340.152 104.025 338.152 113.023 332.653 122.025L319.653 142.025Z" fill="white"/>
<path d="M352 138.513C338 137.313 342.5 128.013 346.5 123.513C392.5 83.0005 423 130.011 392.5 138.513C384.833 139.013 366 139.713 352 138.513Z" fill="white"/>
<path d="M175.771 138.239C189.771 137.039 185.271 127.739 181.271 123.239C135.271 82.727 104.771 129.738 135.271 138.239C142.938 138.739 161.771 139.439 175.771 138.239Z" fill="white"/>
<path d="M367.5 72H160L186.5 23.5H341L367.5 72Z" fill="white"/>
<path d="M179.993 275C-16.0041 228.5 11.4974 95.5 87.993 45C-106.504 169.5 67.9996 329.5 176.497 325.5C185.697 297.5 199.5 306.167 206.5 312.5C221.503 306 224.003 316 226.5 323C236.503 320 241.503 327.5 243.5 332.5C252.503 331 253.503 339 257.5 345.5C261.503 333.5 267.667 329.5 271.5 333C281.847 343.198 288.501 347.096 292.362 348.5C305.362 351.5 294.552 335.202 279.5 323.651C272.5 316.651 279.747 315.747 285 320C327 354 320.3 330.995 294 312C285 305.5 293.564 300.029 299.564 306.5C325.064 334 329.503 325.5 324 316C318.497 306.5 295.625 272.049 278.94 281.5C258.061 293.326 228.727 313.693 233 281.5C235.985 267.486 254.997 251.5 245.997 251.5C227.597 263.9 194.328 272.333 179.993 275Z" fill="#0A2D4B"/>
<path d="M439.5 45C440.744 45.7596 441.969 46.5352 443.174 47.3262C627.92 165.927 469.275 312.633 358.5 333C311.5 354 338 323 343 320C347 317.6 345.992 314.5 344.326 312C269.826 240.5 259.822 287.5 248.826 290.5C240.028 292.9 238.501 284.667 239.5 281.5C265.103 227.9 308.5 258.5 328.997 275C512.564 254.275 533.961 106.933 443.174 47.3262C441.964 46.5496 440.739 45.7742 439.5 45Z" fill="#0A2D4B"/>
<path d="M263.5 339C265 342.5 262.7 350.3 255.5 349.5C246.5 348.5 290.5 366.5 263.5 339Z" fill="#0A2D4B"/>
<path d="M244.786 357.628L251.302 346.491C255.007 338.726 244.352 335.825 240.799 341.423L235.776 352.424C233.496 359.782 242.271 361.85 244.786 357.628Z" fill="#0A2D4B"/>
<path d="M227.982 347.821L235.942 336.236C240.593 328.085 229.415 323.968 225.116 329.766L218.77 341.335C215.684 349.168 224.917 352.208 227.982 347.821Z" fill="#0A2D4B"/>
<path d="M213.472 341.176L221.676 326.337C226.332 315.987 212.784 312.05 208.307 319.507L201.999 334.172C199.151 343.986 210.305 346.801 213.472 341.176Z" fill="#0A2D4B"/>
<path d="M193.786 331.649L199.569 321.188C202.852 313.891 193.301 311.115 190.145 316.372L185.698 326.711C183.69 333.63 191.553 335.614 193.786 331.649Z" fill="#0A2D4B"/>
<rect x="218" y="163" width="91" height="14" fill="white"/>
</svg>
